<svg xmlns="http://www.w3.org/2000/svg" viewBox="0 0 1440 900" width="1440" height="900" preserveAspectRatio="xMidYMid slice">
  <defs>
    <radialGradient id="glow1" cx="20%" cy="10%" r="60%">
      <stop offset="0%" stop-color="#2563EB" stop-opacity="0.28"/>
      <stop offset="100%" stop-color="#2563EB" stop-opacity="0"/>
    </radialGradient>
    <radialGradient id="glow2" cx="85%" cy="30%" r="55%">
      <stop offset="0%" stop-color="#22C55E" stop-opacity="0.16"/>
      <stop offset="100%" stop-color="#22C55E" stop-opacity="0"/>
    </radialGradient>
    <radialGradient id="glow3" cx="50%" cy="90%" r="60%">
      <stop offset="0%" stop-color="#3B82F6" stop-opacity="0.20"/>
      <stop offset="100%" stop-color="#3B82F6" stop-opacity="0"/>
    </radialGradient>
  </defs>
  <rect width="1440" height="900" fill="#0B1120"/>
  <rect width="1440" height="900" fill="url(#glow1)"/>
  <rect width="1440" height="900" fill="url(#glow2)"/>
  <rect width="1440" height="900" fill="url(#glow3)"/>

  <!-- faint grid lines evoking a graph -->
  <g stroke="#1E293B" stroke-width="1" opacity="0.5">
    <line x1="0" y1="150" x2="1440" y2="150"/>
    <line x1="0" y1="300" x2="1440" y2="300"/>
    <line x1="0" y1="450" x2="1440" y2="450"/>
    <line x1="0" y1="600" x2="1440" y2="600"/>
    <line x1="0" y1="750" x2="1440" y2="750"/>
    <line x1="180" y1="0" x2="180" y2="900"/>
    <line x1="360" y1="0" x2="360" y2="900"/>
    <line x1="540" y1="0" x2="540" y2="900"/>
    <line x1="720" y1="0" x2="720" y2="900"/>
    <line x1="900" y1="0" x2="900" y2="900"/>
    <line x1="1080" y1="0" x2="1080" y2="900"/>
    <line x1="1260" y1="0" x2="1260" y2="900"/>
  </g>
</svg>
